{"title":"[ShepardTDS] Kids on the Slope Dual Audio [720p 8-bit x265 HEVC]","uid":13249429,"size":1868688635,"categoryP":"video","categoryS":"tv_shows","magnet":"?xt=urn:btih:b93bb7d69655e11476535d1008e5fcd201636476&amp;dn=%5BShepardTDS%5D+Kids+on+the+Slope+Dual+Audio+%5B720p+8-bit+x265+HEVC%5D&amp;tr=udp%3A%2F%2Ftracker.leechers-paradise.org%3A6969&amp;tr=udp%3A%2F%2Fzer0day.ch%3A1337&amp;tr=udp%3A%2F%2Fopen.demonii.com%3A1337&amp;tr=udp%3A%2F%2Ftracker.coppersurfer.tk%3A6969&amp;tr=udp%3A%2F%2Fexodus.desync.com%3A6969","seeders":1,"leechers":0,"uploader":"ShepardTDS","files":15,"time":1453156214,"description":"http://extraimago.com/images/2016/01/18/71sexYD-TzL._AA_.jpg\r\n\r\nConstant Quality encoding.\r\nVariable Bit rates\r\nED and OP included\r\nBlu-Ray Source\r\n \nhttp://extraimago.com/images/2016/01/18/sample1.jpg\r\n \nhttp://extraimago.com/images/2016/01/18/sample2.jpg\r\n\r\nGeneral\r\n\r\nFormat : Matroska\r\nFile size : 129 MiB-170 MiB\r\nDuration : 22mn 52s\r\nOverall bit rate : 787 Kbps-1,016 Kbps\r\nEncoded date : UTC 2016-01-18 13:35:10\r\nWriting application : mkvmerge v8.5.2 ('Crosses') 32bit\r\nWriting library : libebml v1.3.3 + libmatroska v1.4.4\r\n\r\nVideo\r\nID : 1\r\nFormat : V_MPEGH/ISO/HEVC\r\nCodec ID : V_MPEGH/ISO/HEVC\r\nDuration : 22mn 52s\r\nBit rate : 388 Kbps-612 Kbps\r\nWidth : 1 280 pixels\r\nHeight : 720 pixels\r\nDisplay aspect ratio : 16:9\r\nFrame rate : 23.976 fps\r\nBits/(Pixel*Frame) : 0.018\r\nStream size : 63.4 MiB (49%)\r\n\r\nAudio #1\r\nID : 2\r\nFormat : AC-3\r\nFormat/Info : Audio Coding 3\r\nMode extension : CM (complete main)\r\nCodec ID : A_AC3\r\nDuration : 22mn 52s\r\nBit rate mode : Constant\r\nBit rate : 192 Kbps\r\nChannel(s) : 2 channels\r\nChannel positions : Front: L R\r\nSampling rate : 48.0 KHz\r\nBit depth : 16 bits\r\nCompression mode : Lossy\r\nStream size : 31.4 MiB (24%)\r\nLanguage : English\r\n\r\nAudio #2\r\nID : 3\r\nFormat : AC-3\r\nFormat/Info : Audio Coding 3\r\nMode extension : CM (complete main)\r\nCodec ID : A_AC3\r\nDuration : 22mn 52s\r\nBit rate mode : Constant\r\nBit rate : 192 Kbps\r\nChannel(s) : 2 channels\r\nChannel positions : Front: L R\r\nSampling rate : 48.0 KHz\r\nBit depth : 16 bits\r\nCompression mode : Lossy\r\nStream size : 31.4 MiB (24%)\r\nLanguage : Japanese\r\n\r\nText #1\r\nID : 4\r\nFormat : ASS\r\nCodec ID : S_TEXT/ASS\r\nCodec ID/Info : Advanced Sub Station Alpha\r\nCompression mode : Lossless\r\nTitle : Signs/Songs\r\nLanguage : English\r\n\r\nText #2\r\nID : 5\r\nFormat : ASS\r\nCodec ID : S_TEXT/ASS\r\nCodec ID/Info : Advanced Sub Station Alpha\r\nCompression mode : Lossless\r\nTitle : English Dialogue\r\nLanguage : English\r\n\r\nMenu\r\n00:00:00.000 : en:Prologue\r\n00:01:34.011 : en:Part 1\r\n00:11:54.047 : en:Part 2\r\n00:19:50.147 : en:Epilogue\r\n00:21:21.071 : en:Ending","torrent":{"xt":"urn:btih:b93bb7d69655e11476535d1008e5fcd201636476","amp;dn":"%5BShepardTDS%5D+Kids+on+the+Slope+Dual+Audio+%5B720p+8-bit+x265+HEVC%5D","amp;tr":["udp%3A%2F%2Ftracker.leechers-paradise.org%3A6969","udp%3A%2F%2Fzer0day.ch%3A1337","udp%3A%2F%2Fopen.demonii.com%3A1337","udp%3A%2F%2Ftracker.coppersurfer.tk%3A6969","udp%3A%2F%2Fexodus.desync.com%3A6969"],"infoHash":"b93bb7d69655e11476535d1008e5fcd201636476","infoHashBuffer":{"type":"Buffer","data":[185,59,183,214,150,85,225,20,118,83,93,16,8,229,252,210,1,99,100,118]},"announce":[],"urlList":[]}}